<svg width="64" height="64" viewBox="0 0 64 64" fill="none" xmlns="http://www.w3.org/2000/svg">
<rect width="64" height="64" rx="16" fill="white"/>
<path d="M41.2436 49.8987C41.2636 51.1043 41.0652 52.3022 40.6599 53.4225C40.2547 54.5427 39.6508 55.5628 38.8835 56.4231C38.1162 57.2835 37.2009 57.9669 36.191 58.4334C35.1812 58.8999 34.097 59.1402 33.0019 59.1402C31.9068 59.1402 30.8226 58.8999 29.8128 58.4334C28.8029 57.9669 27.8876 57.2835 27.1203 56.4231C26.353 55.5628 25.7491 54.5427 25.3439 53.4225C24.9387 52.3022 24.7402 51.1043 24.7602 49.8987C24.7602 44.8865 33.0005 45.3621 33.0005 29.4795C33.0005 45.919 41.2436 44.8865 41.2436 49.8987Z" fill="#0468BF"/>
<path d="M24.7529 15.866C24.7923 13.4879 25.6779 11.2218 27.2192 9.55526C28.7606 7.88877 30.8345 6.95508 32.9947 6.95508C35.1549 6.95508 37.2288 7.88877 38.7701 9.55526C40.3115 11.2218 41.1971 13.4879 41.2364 15.866C41.2364 20.8782 32.9933 20.4056 32.9933 36.2852C33.0015 19.8367 24.7529 20.8782 24.7529 15.866Z" fill="#0468BF"/>
<path d="M24.76 8.60802C25.6705 8.60802 26.4086 7.79531 26.4086 6.79278C26.4086 5.79025 25.6705 4.97754 24.76 4.97754C23.8494 4.97754 23.1113 5.79025 23.1113 6.79278C23.1113 7.79531 23.8494 8.60802 24.76 8.60802Z" fill="#0468BF"/>
</svg>
