<svg width="119" height="45" viewBox="0 0 119 45" fill="none" xmlns="http://www.w3.org/2000/svg">
<path d="M30.2962 29.9326V13.9857H34.1918V29.9326H30.2962ZM20.3863 29.9326V13.9857H24.2819V29.9326H20.3863ZM21.9354 23.7361V20.2278H32.3465V23.7361H21.9354ZM44.2446 29.9326V22.5059C44.2446 21.8832 44.0699 21.4276 43.7206 21.139C43.3865 20.8353 42.9157 20.6834 42.3082 20.6834C41.7158 20.6834 41.1843 20.7973 40.7135 21.0251C40.2578 21.2377 39.8174 21.5946 39.3921 22.0958L37.2051 19.9772C37.9341 19.233 38.7695 18.6483 39.7111 18.223C40.6527 17.7978 41.6779 17.5851 42.7866 17.5851C43.8041 17.5851 44.685 17.737 45.4292 18.0408C46.1734 18.3445 46.7505 18.8077 47.1606 19.4304C47.5707 20.0531 47.7757 20.8429 47.7757 21.7997V29.9326H44.2446ZM41.1007 30.1604C40.3414 30.1604 39.6503 30.0086 39.0276 29.7048C38.4201 29.4011 37.9341 28.9834 37.5696 28.4518C37.2203 27.9051 37.0457 27.2672 37.0457 26.5382C37.0457 25.9155 37.1596 25.3688 37.3874 24.8979C37.6152 24.4271 37.9493 24.0398 38.3898 23.7361C38.8454 23.4172 39.4073 23.1817 40.0756 23.0299C40.759 22.8628 41.5488 22.7793 42.4448 22.7793H46.1126L45.9076 25.0802H42.536C42.217 25.0802 41.9361 25.1106 41.6931 25.1713C41.4501 25.2169 41.245 25.3004 41.078 25.4219C40.9109 25.5282 40.7818 25.6573 40.6907 25.8092C40.6147 25.9611 40.5768 26.1433 40.5768 26.3559C40.5768 26.5838 40.6375 26.7812 40.759 26.9483C40.8805 27.1153 41.04 27.2444 41.2374 27.3355C41.4501 27.4267 41.6931 27.4722 41.9664 27.4722C42.3613 27.4722 42.7334 27.4115 43.0827 27.29C43.4472 27.1533 43.7662 26.9634 44.0395 26.7204C44.3281 26.4774 44.5559 26.1965 44.723 25.8775L45.3609 27.5178C45.0419 28.0342 44.6546 28.4898 44.199 28.8847C43.7586 29.2796 43.2726 29.5909 42.741 29.8187C42.2246 30.0465 41.6779 30.1604 41.1007 30.1604ZM56.009 30.1604C54.8396 30.1604 53.784 29.8871 52.8424 29.3403C51.916 28.7935 51.187 28.0494 50.6554 27.1077C50.1238 26.1509 49.858 25.0802 49.858 23.8956C49.858 22.6806 50.1238 21.6022 50.6554 20.6606C51.187 19.7038 51.916 18.952 52.8424 18.4053C53.784 17.8585 54.8396 17.5851 56.009 17.5851C57.0873 17.5851 58.0745 17.7826 58.9706 18.1774C59.8818 18.5571 60.5956 19.0811 61.112 19.7494L59.13 22.1642C58.9326 21.906 58.6896 21.6706 58.401 21.458C58.1125 21.2453 57.7935 21.0783 57.4442 20.9568C57.0949 20.8353 56.7304 20.7745 56.3507 20.7745C55.7736 20.7745 55.2648 20.9112 54.8244 21.1846C54.3839 21.4428 54.0422 21.8073 53.7992 22.2781C53.5562 22.7489 53.4347 23.2805 53.4347 23.8728C53.4347 24.4499 53.5562 24.9739 53.7992 25.4447C54.0574 25.9003 54.4067 26.2648 54.8472 26.5382C55.2876 26.8116 55.7812 26.9483 56.3279 26.9483C56.7228 26.9483 57.0873 26.8951 57.4214 26.7888C57.7556 26.6825 58.0593 26.5306 58.3327 26.3332C58.6213 26.1357 58.887 25.9003 59.13 25.6269L61.112 28.0418C60.5956 28.6796 59.8742 29.196 58.9478 29.5909C58.0214 29.9706 57.0418 30.1604 56.009 30.1604ZM66.6233 26.3787L65.3248 23.5994L70.9518 17.8357H75.7587L66.6233 26.3787ZM63.115 29.9326V13.0744H66.7828V29.9326H63.115ZM71.2935 29.9326L67.079 24.4651L69.676 22.4603L75.6447 29.9326H71.2935ZM83.3333 29.9326V22.5059C83.3333 21.8832 83.1586 21.4276 82.8093 21.139C82.4752 20.8353 82.0044 20.6834 81.3969 20.6834C80.8045 20.6834 80.273 20.7973 79.8022 21.0251C79.3465 21.2377 78.9061 21.5946 78.4808 22.0958L76.2938 19.9772C77.0228 19.233 77.8582 18.6483 78.7998 18.223C79.7414 17.7978 80.7666 17.5851 81.8753 17.5851C82.8928 17.5851 83.7737 17.737 84.5179 18.0408C85.2621 18.3445 85.8392 18.8077 86.2493 19.4304C86.6594 20.0531 86.8644 20.8429 86.8644 21.7997V29.9326H83.3333ZM80.1894 30.1604C79.4301 30.1604 78.739 30.0086 78.1163 29.7048C77.5088 29.4011 77.0228 28.9834 76.6583 28.4518C76.309 27.9051 76.1344 27.2672 76.1344 26.5382C76.1344 25.9155 76.2483 25.3688 76.4761 24.8979C76.7039 24.4271 77.038 24.0398 77.4785 23.7361C77.9341 23.4172 78.496 23.1817 79.1643 23.0299C79.8477 22.8628 80.6375 22.7793 81.5335 22.7793H85.2013L84.9963 25.0802H81.6247C81.3057 25.0802 81.0248 25.1106 80.7818 25.1713C80.5388 25.2169 80.3337 25.3004 80.1667 25.4219C79.9996 25.5282 79.8705 25.6573 79.7794 25.8092C79.7034 25.9611 79.6655 26.1433 79.6655 26.3559C79.6655 26.5838 79.7262 26.7812 79.8477 26.9483C79.9692 27.1153 80.1287 27.2444 80.3261 27.3355C80.5388 27.4267 80.7818 27.4722 81.0551 27.4722C81.45 27.4722 81.8221 27.4115 82.1714 27.29C82.5359 27.1533 82.8549 26.9634 83.1282 26.7204C83.4168 26.4774 83.6446 26.1965 83.8117 25.8775L84.4496 27.5178C84.1306 28.0342 83.7433 28.4898 83.2877 28.8847C82.8473 29.2796 82.3613 29.5909 81.8297 29.8187C81.3133 30.0465 80.7666 30.1604 80.1894 30.1604ZM94.3915 30.1604C93.3587 30.1604 92.4247 29.8946 91.5894 29.3631C90.7692 28.8315 90.1238 28.0949 89.653 27.1533C89.1821 26.1965 88.9467 25.1106 88.9467 23.8956C88.9467 22.6806 89.1821 21.6022 89.653 20.6606C90.1238 19.7038 90.7692 18.952 91.5894 18.4053C92.4247 17.8585 93.3663 17.5851 94.4143 17.5851C94.961 17.5851 95.485 17.6687 95.9862 17.8357C96.5026 18.0028 96.9582 18.2306 97.3531 18.5192C97.7631 18.8077 98.0972 19.1343 98.3554 19.4988C98.6136 19.8633 98.7731 20.2505 98.8338 20.6606L97.9454 20.8656V13.0744H101.613V29.9326H98.196L97.9909 27.1989L98.7199 27.3355C98.6896 27.7 98.5529 28.057 98.3099 28.4063C98.0669 28.7404 97.7403 29.0441 97.3303 29.3175C96.9354 29.5757 96.4874 29.7807 95.9862 29.9326C95.485 30.0845 94.9534 30.1604 94.3915 30.1604ZM95.3027 27.1305C95.8647 27.1305 96.3431 27.0014 96.738 26.7432C97.148 26.4699 97.467 26.0902 97.6948 25.6042C97.9226 25.1182 98.0365 24.5486 98.0365 23.8956C98.0365 23.2273 97.9226 22.6502 97.6948 22.1642C97.467 21.6782 97.148 21.3061 96.738 21.0479C96.3431 20.7745 95.8647 20.6378 95.3027 20.6378C94.756 20.6378 94.2776 20.7745 93.8675 21.0479C93.4726 21.3061 93.1613 21.6782 92.9335 22.1642C92.7057 22.6502 92.5918 23.2273 92.5918 23.8956C92.5918 24.5486 92.7057 25.1182 92.9335 25.6042C93.1613 26.0902 93.4726 26.4699 93.8675 26.7432C94.2776 27.0014 94.756 27.1305 95.3027 27.1305ZM110.459 30.1604C109.123 30.1604 107.953 29.8946 106.951 29.3631C105.964 28.8315 105.197 28.1025 104.65 27.1761C104.118 26.2344 103.853 25.1637 103.853 23.9639C103.853 23.0223 104.004 22.1642 104.308 21.3896C104.612 20.5999 105.037 19.924 105.584 19.3621C106.146 18.8001 106.799 18.3673 107.543 18.0635C108.302 17.7446 109.13 17.5851 110.026 17.5851C110.877 17.5851 111.651 17.737 112.35 18.0408C113.049 18.3445 113.656 18.7698 114.172 19.3165C114.689 19.8633 115.084 20.5087 115.357 21.2529C115.63 21.9971 115.76 22.8096 115.744 23.6905L115.722 24.6929H106.108L105.561 22.6198H112.737L112.35 23.0299V22.5742C112.32 22.1946 112.198 21.868 111.985 21.5946C111.788 21.3061 111.522 21.0783 111.188 20.9112C110.869 20.7441 110.505 20.6606 110.095 20.6606C109.487 20.6606 108.971 20.7821 108.545 21.0251C108.135 21.2529 107.824 21.5871 107.611 22.0275C107.399 22.4679 107.292 23.0147 107.292 23.6677C107.292 24.3208 107.429 24.8979 107.703 25.3991C107.991 25.9003 108.401 26.2876 108.933 26.561C109.48 26.8344 110.125 26.971 110.869 26.971C111.37 26.971 111.826 26.8951 112.236 26.7432C112.646 26.5914 113.087 26.3332 113.557 25.9687L115.266 28.3835C114.795 28.7784 114.294 29.1125 113.762 29.3859C113.231 29.6441 112.684 29.8339 112.122 29.9554C111.575 30.0921 111.021 30.1604 110.459 30.1604Z" fill="#011640"/>
<path d="M80.5582 14.8398C79.878 12.6896 79.423 10.4609 79.2021 8.19705L80.6452 6.79102C81.2074 8.83426 81.9351 10.8178 82.8196 12.7177L80.5582 14.8398Z" fill="#011640"/>
<path d="M13.1092 32.4782C13.1236 33.3499 12.9802 34.216 12.6872 35.0259C12.3942 35.8359 11.9576 36.5734 11.4028 37.1955C10.848 37.8175 10.1862 38.3116 9.45611 38.6489C8.72597 38.9862 7.94211 39.16 7.15031 39.16C6.35851 39.16 5.57465 38.9862 4.84452 38.6489C4.11438 38.3116 3.4526 37.8175 2.89784 37.1955C2.34307 36.5734 1.90645 35.8359 1.61346 35.0259C1.32047 34.216 1.177 33.3499 1.19142 32.4782C1.19142 28.8543 7.14933 29.1982 7.14933 17.7148C7.14933 29.6009 13.1092 28.8543 13.1092 32.4782Z" fill="#0468BF"/>
<path d="M1.18555 7.87241C1.21399 6.15299 1.8543 4.51456 2.96872 3.30966C4.08313 2.10476 5.58258 1.42969 7.14444 1.42969C8.7063 1.42969 10.2058 2.10476 11.3202 3.30966C12.4346 4.51456 13.0749 6.15299 13.1033 7.87241C13.1033 11.4963 7.14346 11.1546 7.14346 22.6358C7.14939 10.7432 1.18555 11.4963 1.18555 7.87241Z" fill="#0468BF"/>
<path d="M1.19198 2.62489C1.85029 2.62489 2.38395 2.03729 2.38395 1.31245C2.38395 0.587602 1.85029 0 1.19198 0C0.533666 0 0 0.587602 0 1.31245C0 2.03729 0.533666 2.62489 1.19198 2.62489Z" fill="#0468BF"/>
</svg>
