<svg width="119" height="45" viewBox="0 0 119 45" fill="none" xmlns="http://www.w3.org/2000/svg">
<path d="M30.2962 29.9316V13.9847H34.1918V29.9316H30.2962ZM20.3863 29.9316V13.9847H24.2819V29.9316H20.3863ZM21.9354 23.7351V20.2268H32.3465V23.7351H21.9354ZM44.2446 29.9316V22.5049C44.2446 21.8822 44.0699 21.4266 43.7206 21.138C43.3865 20.8343 42.9157 20.6824 42.3082 20.6824C41.7158 20.6824 41.1843 20.7963 40.7135 21.0241C40.2578 21.2368 39.8174 21.5937 39.3921 22.0949L37.2051 19.9762C37.9341 19.232 38.7695 18.6473 39.7111 18.222C40.6527 17.7968 41.6779 17.5841 42.7866 17.5841C43.8041 17.5841 44.685 17.736 45.4292 18.0398C46.1734 18.3435 46.7505 18.8067 47.1606 19.4294C47.5707 20.0521 47.7757 20.8419 47.7757 21.7987V29.9316H44.2446ZM41.1008 30.1595C40.3414 30.1595 39.6503 30.0076 39.0276 29.7038C38.4201 29.4001 37.9341 28.9824 37.5696 28.4509C37.2203 27.9041 37.0457 27.2662 37.0457 26.5372C37.0457 25.9145 37.1596 25.3678 37.3874 24.897C37.6152 24.4261 37.9493 24.0389 38.3898 23.7351C38.8454 23.4162 39.4073 23.1808 40.0756 23.0289C40.759 22.8618 41.5488 22.7783 42.4449 22.7783H46.1126L45.9076 25.0792H42.536C42.217 25.0792 41.9361 25.1096 41.6931 25.1703C41.4501 25.2159 41.245 25.2994 41.078 25.4209C40.9109 25.5272 40.7818 25.6563 40.6907 25.8082C40.6147 25.9601 40.5768 26.1423 40.5768 26.355C40.5768 26.5828 40.6375 26.7802 40.759 26.9473C40.8805 27.1143 41.04 27.2434 41.2374 27.3346C41.4501 27.4257 41.6931 27.4713 41.9664 27.4713C42.3613 27.4713 42.7334 27.4105 43.0827 27.289C43.4472 27.1523 43.7662 26.9625 44.0395 26.7195C44.3281 26.4765 44.5559 26.1955 44.723 25.8766L45.3609 27.5168C45.0419 28.0332 44.6546 28.4888 44.199 28.8837C43.7586 29.2786 43.2726 29.5899 42.741 29.8177C42.2246 30.0455 41.6779 30.1595 41.1008 30.1595ZM56.009 30.1595C54.8396 30.1595 53.784 29.8861 52.8424 29.3393C51.916 28.7926 51.187 28.0484 50.6554 27.1068C50.1238 26.1499 49.858 25.0792 49.858 23.8946C49.858 22.6796 50.1238 21.6013 50.6554 20.6596C51.187 19.7028 51.916 18.951 52.8424 18.4043C53.784 17.8575 54.8396 17.5841 56.009 17.5841C57.0873 17.5841 58.0745 17.7816 58.9706 18.1765C59.8818 18.5562 60.5957 19.0801 61.112 19.7484L59.1301 22.1632C58.9326 21.905 58.6896 21.6696 58.401 21.457C58.1125 21.2444 57.7935 21.0773 57.4442 20.9558C57.0949 20.8343 56.7304 20.7735 56.3507 20.7735C55.7736 20.7735 55.2648 20.9102 54.8244 21.1836C54.3839 21.4418 54.0422 21.8063 53.7992 22.2771C53.5562 22.7479 53.4347 23.2795 53.4347 23.8718C53.4347 24.4489 53.5562 24.9729 53.7992 25.4437C54.0574 25.8993 54.4067 26.2638 54.8472 26.5372C55.2876 26.8106 55.7812 26.9473 56.3279 26.9473C56.7228 26.9473 57.0873 26.8941 57.4215 26.7878C57.7556 26.6815 58.0593 26.5296 58.3327 26.3322C58.6213 26.1347 58.8871 25.8993 59.1301 25.626L61.112 28.0408C60.5957 28.6787 59.8742 29.195 58.9478 29.5899C58.0214 29.9696 57.0418 30.1595 56.009 30.1595ZM66.6233 26.3778L65.3248 23.5984L70.9518 17.8347H75.7587L66.6233 26.3778ZM63.115 29.9316V13.0734H66.7828V29.9316H63.115ZM71.2935 29.9316L67.079 24.4641L69.676 22.4594L75.6448 29.9316H71.2935ZM83.3333 29.9316V22.5049C83.3333 21.8822 83.1586 21.4266 82.8093 21.138C82.4752 20.8343 82.0044 20.6824 81.3969 20.6824C80.8045 20.6824 80.273 20.7963 79.8022 21.0241C79.3465 21.2368 78.9061 21.5937 78.4809 22.0949L76.2938 19.9762C77.0228 19.232 77.8582 18.6473 78.7998 18.222C79.7414 17.7968 80.7666 17.5841 81.8753 17.5841C82.8928 17.5841 83.7737 17.736 84.5179 18.0398C85.2621 18.3435 85.8392 18.8067 86.2493 19.4294C86.6594 20.0521 86.8644 20.8419 86.8644 21.7987V29.9316H83.3333ZM80.1895 30.1595C79.4301 30.1595 78.739 30.0076 78.1163 29.7038C77.5088 29.4001 77.0228 28.9824 76.6583 28.4509C76.309 27.9041 76.1344 27.2662 76.1344 26.5372C76.1344 25.9145 76.2483 25.3678 76.4761 24.897C76.7039 24.4261 77.038 24.0389 77.4785 23.7351C77.9341 23.4162 78.496 23.1808 79.1643 23.0289C79.8477 22.8618 80.6375 22.7783 81.5336 22.7783H85.2013L84.9963 25.0792H81.6247C81.3057 25.0792 81.0248 25.1096 80.7818 25.1703C80.5388 25.2159 80.3337 25.2994 80.1667 25.4209C79.9996 25.5272 79.8705 25.6563 79.7794 25.8082C79.7035 25.9601 79.6655 26.1423 79.6655 26.355C79.6655 26.5828 79.7262 26.7802 79.8477 26.9473C79.9692 27.1143 80.1287 27.2434 80.3261 27.3346C80.5388 27.4257 80.7818 27.4713 81.0551 27.4713C81.45 27.4713 81.8221 27.4105 82.1714 27.289C82.5359 27.1523 82.8549 26.9625 83.1282 26.7195C83.4168 26.4765 83.6446 26.1955 83.8117 25.8766L84.4496 27.5168C84.1306 28.0332 83.7433 28.4888 83.2877 28.8837C82.8473 29.2786 82.3613 29.5899 81.8297 29.8177C81.3133 30.0455 80.7666 30.1595 80.1895 30.1595ZM94.3915 30.1595C93.3587 30.1595 92.4247 29.8937 91.5894 29.3621C90.7693 28.8305 90.1238 28.0939 89.653 27.1523C89.1822 26.1955 88.9467 25.1096 88.9467 23.8946C88.9467 22.6796 89.1822 21.6013 89.653 20.6596C90.1238 19.7028 90.7693 18.951 91.5894 18.4043C92.4247 17.8575 93.3663 17.5841 94.4143 17.5841C94.961 17.5841 95.485 17.6677 95.9862 17.8347C96.5026 18.0018 96.9582 18.2296 97.3531 18.5182C97.7631 18.8067 98.0973 19.1333 98.3554 19.4978C98.6136 19.8623 98.7731 20.2496 98.8339 20.6596L97.9454 20.8647V13.0734H101.613V29.9316H98.196L97.9909 27.1979L98.7199 27.3346C98.6896 27.6991 98.5529 28.056 98.3099 28.4053C98.0669 28.7394 97.7403 29.0432 97.3303 29.3165C96.9354 29.5747 96.4874 29.7798 95.9862 29.9316C95.485 30.0835 94.9534 30.1595 94.3915 30.1595ZM95.3027 27.1295C95.8647 27.1295 96.3431 27.0004 96.738 26.7423C97.148 26.4689 97.467 26.0892 97.6948 25.6032C97.9226 25.1172 98.0365 24.5476 98.0365 23.8946C98.0365 23.2263 97.9226 22.6492 97.6948 22.1632C97.467 21.6772 97.148 21.3051 96.738 21.0469C96.3431 20.7735 95.8647 20.6368 95.3027 20.6368C94.756 20.6368 94.2776 20.7735 93.8675 21.0469C93.4726 21.3051 93.1613 21.6772 92.9335 22.1632C92.7057 22.6492 92.5918 23.2263 92.5918 23.8946C92.5918 24.5476 92.7057 25.1172 92.9335 25.6032C93.1613 26.0892 93.4726 26.4689 93.8675 26.7423C94.2776 27.0004 94.756 27.1295 95.3027 27.1295ZM110.459 30.1595C109.123 30.1595 107.953 29.8937 106.951 29.3621C105.964 28.8305 105.197 28.1015 104.65 27.1751C104.118 26.2335 103.853 25.1627 103.853 23.9629C103.853 23.0213 104.004 22.1632 104.308 21.3886C104.612 20.5989 105.037 19.923 105.584 19.3611C106.146 18.7992 106.799 18.3663 107.543 18.0626C108.302 17.7436 109.13 17.5841 110.026 17.5841C110.877 17.5841 111.651 17.736 112.35 18.0398C113.049 18.3435 113.656 18.7688 114.172 19.3155C114.689 19.8623 115.084 20.5078 115.357 21.2519C115.63 21.9961 115.76 22.8087 115.744 23.6896L115.722 24.6919H106.108L105.561 22.6188H112.737L112.35 23.0289V22.5733C112.32 22.1936 112.198 21.867 111.985 21.5937C111.788 21.3051 111.522 21.0773 111.188 20.9102C110.869 20.7432 110.505 20.6596 110.095 20.6596C109.487 20.6596 108.971 20.7811 108.545 21.0241C108.135 21.2519 107.824 21.5861 107.611 22.0265C107.399 22.467 107.292 23.0137 107.292 23.6668C107.292 24.3198 107.429 24.897 107.703 25.3982C107.991 25.8993 108.401 26.2866 108.933 26.56C109.48 26.8334 110.125 26.9701 110.869 26.9701C111.37 26.9701 111.826 26.8941 112.236 26.7423C112.646 26.5904 113.087 26.3322 113.557 25.9677L115.266 28.3825C114.795 28.7774 114.294 29.1115 113.762 29.3849C113.231 29.6431 112.684 29.8329 112.122 29.9544C111.575 30.0911 111.021 30.1595 110.459 30.1595Z" fill="white"/>
<path d="M80.5582 14.8398C79.878 12.6896 79.423 10.4609 79.2021 8.19705L80.6452 6.79102C81.2074 8.83426 81.9351 10.8178 82.8196 12.7177L80.5582 14.8398Z" fill="white"/>
<path d="M13.1102 32.4782C13.1246 33.3499 12.9811 34.216 12.6881 35.0259C12.3952 35.8359 11.9585 36.5734 11.4038 37.1955C10.849 37.8175 10.1872 38.3116 9.45708 38.6489C8.72695 38.9862 7.94308 39.16 7.15129 39.16C6.35949 39.16 5.57563 38.9862 4.84549 38.6489C4.11535 38.3116 3.45358 37.8175 2.89881 37.1955C2.34405 36.5734 1.90743 35.8359 1.61444 35.0259C1.32145 34.216 1.17798 33.3499 1.19239 32.4782C1.19239 28.8543 7.1503 29.1982 7.1503 17.7148C7.1503 29.6009 13.1102 28.8543 13.1102 32.4782Z" fill="#0468BF"/>
<path d="M1.18652 7.87241C1.21497 6.15299 1.85528 4.51456 2.9697 3.30966C4.08411 2.10476 5.58356 1.42969 7.14542 1.42969C8.70728 1.42969 10.2067 2.10476 11.3211 3.30966C12.4356 4.51456 13.0759 6.15299 13.1043 7.87241C13.1043 11.4963 7.14443 11.1546 7.14443 22.6358C7.15036 10.7432 1.18652 11.4963 1.18652 7.87241Z" fill="#0468BF"/>
<path d="M1.19198 2.62489C1.85029 2.62489 2.38395 2.03729 2.38395 1.31245C2.38395 0.587602 1.85029 0 1.19198 0C0.533666 0 0 0.587602 0 1.31245C0 2.03729 0.533666 2.62489 1.19198 2.62489Z" fill="#0468BF"/>
</svg>
